<mxfile host="Electron" modified="2023-07-12T14:47:49.104Z" agent="Mozilla/5.0 (Windows NT 10.0; Win64; x64) AppleWebKit/537.36 (KHTML, like Gecko) draw.io/21.6.1 Chrome/112.0.5615.204 Electron/24.6.1 Safari/537.36" etag="YL-xFQ3ZnIgoURsJhzbO" version="21.6.1" type="device">
  <diagram name="第 1 页" id="9adzBXYky2902U_5Yld0">
    <mxGraphModel dx="1434" dy="836" grid="1" gridSize="10" guides="1" tooltips="1" connect="1" arrows="1" fold="1" page="1" pageScale="1" pageWidth="1169" pageHeight="827" math="0" shadow="0">
      <root>
        <mxCell id="0" />
        <mxCell id="1" parent="0" />
        <mxCell id="S-H7aRFsF-vbTk2CikwW-43" value="" style="group" vertex="1" connectable="0" parent="1">
          <mxGeometry x="200" y="90" width="840" height="841" as="geometry" />
        </mxCell>
        <mxCell id="S-H7aRFsF-vbTk2CikwW-2" value="" style="group" vertex="1" connectable="0" parent="S-H7aRFsF-vbTk2CikwW-43">
          <mxGeometry x="440" width="400" height="770" as="geometry" />
        </mxCell>
        <mxCell id="S-H7aRFsF-vbTk2CikwW-3" value="" style="rounded=1;whiteSpace=wrap;html=1;fillColor=none;container=0;" vertex="1" parent="S-H7aRFsF-vbTk2CikwW-2">
          <mxGeometry x="20.25" y="49.75" width="360" height="310" as="geometry" />
        </mxCell>
        <mxCell id="S-H7aRFsF-vbTk2CikwW-4" value="" style="rounded=0;whiteSpace=wrap;html=1;rotation=90;fillColor=none;container=0;" vertex="1" parent="S-H7aRFsF-vbTk2CikwW-2">
          <mxGeometry x="-185" y="185" width="770" height="400" as="geometry" />
        </mxCell>
        <mxCell id="S-H7aRFsF-vbTk2CikwW-5" value="" style="rounded=0;whiteSpace=wrap;html=1;rotation=90;container=0;" vertex="1" parent="S-H7aRFsF-vbTk2CikwW-2">
          <mxGeometry x="70.25" y="139.75" width="120" height="60" as="geometry" />
        </mxCell>
        <mxCell id="S-H7aRFsF-vbTk2CikwW-6" value="" style="rounded=0;whiteSpace=wrap;html=1;rotation=90;container=0;" vertex="1" parent="S-H7aRFsF-vbTk2CikwW-2">
          <mxGeometry x="210.25" y="139.75" width="120" height="60" as="geometry" />
        </mxCell>
        <mxCell id="S-H7aRFsF-vbTk2CikwW-7" value="容器1" style="text;html=1;strokeColor=none;fillColor=none;align=center;verticalAlign=middle;whiteSpace=wrap;rounded=0;fontSize=20;container=0;" vertex="1" parent="S-H7aRFsF-vbTk2CikwW-2">
          <mxGeometry x="100.25" y="109.75" width="60" height="30" as="geometry" />
        </mxCell>
        <mxCell id="S-H7aRFsF-vbTk2CikwW-8" value="容器2" style="text;html=1;strokeColor=none;fillColor=none;align=center;verticalAlign=middle;whiteSpace=wrap;rounded=0;fontSize=20;container=0;" vertex="1" parent="S-H7aRFsF-vbTk2CikwW-2">
          <mxGeometry x="240.25" y="109.75" width="60" height="30" as="geometry" />
        </mxCell>
        <mxCell id="S-H7aRFsF-vbTk2CikwW-9" value="&lt;font style=&quot;font-size: 24px;&quot;&gt;Pod2&lt;/font&gt;" style="text;html=1;strokeColor=none;fillColor=none;align=center;verticalAlign=middle;whiteSpace=wrap;rounded=0;container=0;" vertex="1" parent="S-H7aRFsF-vbTk2CikwW-2">
          <mxGeometry x="120.25" y="69.75" width="160" height="30" as="geometry" />
        </mxCell>
        <mxCell id="S-H7aRFsF-vbTk2CikwW-10" value="" style="rounded=0;whiteSpace=wrap;html=1;container=0;" vertex="1" parent="S-H7aRFsF-vbTk2CikwW-2">
          <mxGeometry x="40.25" y="229.75" width="320" height="110" as="geometry" />
        </mxCell>
        <mxCell id="S-H7aRFsF-vbTk2CikwW-11" value="共享网络空间" style="text;html=1;strokeColor=none;fillColor=none;align=left;verticalAlign=middle;whiteSpace=wrap;rounded=0;fontSize=20;container=0;" vertex="1" parent="S-H7aRFsF-vbTk2CikwW-2">
          <mxGeometry x="50.25" y="229.75" width="130" height="40" as="geometry" />
        </mxCell>
        <mxCell id="S-H7aRFsF-vbTk2CikwW-12" value="Docker0网桥" style="rounded=0;whiteSpace=wrap;html=1;align=left;fontSize=20;container=0;" vertex="1" parent="S-H7aRFsF-vbTk2CikwW-2">
          <mxGeometry x="20.25" y="547.75" width="360" height="40" as="geometry" />
        </mxCell>
        <mxCell id="S-H7aRFsF-vbTk2CikwW-13" value="ethXXX" style="rounded=0;whiteSpace=wrap;html=1;fontSize=20;rotation=-90;container=0;" vertex="1" parent="S-H7aRFsF-vbTk2CikwW-2">
          <mxGeometry x="150.25" y="479.75" width="100" height="36" as="geometry" />
        </mxCell>
        <mxCell id="S-H7aRFsF-vbTk2CikwW-14" value="" style="endArrow=classic;startArrow=classic;html=1;rounded=0;entryX=0.5;entryY=1;entryDx=0;entryDy=0;exitX=1;exitY=0.5;exitDx=0;exitDy=0;" edge="1" parent="S-H7aRFsF-vbTk2CikwW-2" source="S-H7aRFsF-vbTk2CikwW-13" target="S-H7aRFsF-vbTk2CikwW-10">
          <mxGeometry width="50" height="50" relative="1" as="geometry">
            <mxPoint x="-19.75" y="469.75" as="sourcePoint" />
            <mxPoint x="30.25" y="419.75" as="targetPoint" />
          </mxGeometry>
        </mxCell>
        <mxCell id="S-H7aRFsF-vbTk2CikwW-15" value="路由" style="ellipse;shape=cloud;whiteSpace=wrap;html=1;fontSize=20;container=0;" vertex="1" parent="S-H7aRFsF-vbTk2CikwW-2">
          <mxGeometry x="140.25" y="609.75" width="120" height="80" as="geometry" />
        </mxCell>
        <mxCell id="S-H7aRFsF-vbTk2CikwW-16" value="Node2" style="text;html=1;strokeColor=none;fillColor=none;align=center;verticalAlign=middle;whiteSpace=wrap;rounded=0;fontSize=24;container=0;" vertex="1" parent="S-H7aRFsF-vbTk2CikwW-2">
          <mxGeometry x="20.25" y="9.75" width="90" height="30" as="geometry" />
        </mxCell>
        <mxCell id="S-H7aRFsF-vbTk2CikwW-17" value="&lt;font style=&quot;font-size: 20px;&quot;&gt;eth0&lt;/font&gt;" style="rounded=0;whiteSpace=wrap;html=1;rotation=-90;" vertex="1" parent="S-H7aRFsF-vbTk2CikwW-2">
          <mxGeometry x="172.13" y="721.63" width="56.25" height="40" as="geometry" />
        </mxCell>
        <mxCell id="S-H7aRFsF-vbTk2CikwW-18" value="&lt;font style=&quot;font-size: 20px;&quot;&gt;eth0&lt;/font&gt;" style="rounded=0;whiteSpace=wrap;html=1;rotation=-90;" vertex="1" parent="S-H7aRFsF-vbTk2CikwW-2">
          <mxGeometry x="171.05999999999995" y="290.56" width="57.87" height="40" as="geometry" />
        </mxCell>
        <mxCell id="S-H7aRFsF-vbTk2CikwW-19" value="&lt;font color=&quot;#ffffff&quot; style=&quot;font-size: 20px;&quot;&gt;IP4&lt;/font&gt;" style="ellipse;whiteSpace=wrap;html=1;fillColor=#000000;" vertex="1" parent="S-H7aRFsF-vbTk2CikwW-2">
          <mxGeometry x="210.25" y="728.63" width="80" height="26" as="geometry" />
        </mxCell>
        <mxCell id="S-H7aRFsF-vbTk2CikwW-20" value="&lt;font color=&quot;#ffffff&quot; style=&quot;font-size: 20px;&quot;&gt;IP2&lt;/font&gt;" style="ellipse;whiteSpace=wrap;html=1;fillColor=#000000;" vertex="1" parent="S-H7aRFsF-vbTk2CikwW-2">
          <mxGeometry x="210.25" y="297.56" width="80" height="26" as="geometry" />
        </mxCell>
        <mxCell id="S-H7aRFsF-vbTk2CikwW-22" value="" style="group" vertex="1" connectable="0" parent="S-H7aRFsF-vbTk2CikwW-43">
          <mxGeometry width="400" height="770" as="geometry" />
        </mxCell>
        <mxCell id="S-H7aRFsF-vbTk2CikwW-23" value="" style="rounded=1;whiteSpace=wrap;html=1;fillColor=none;container=0;" vertex="1" parent="S-H7aRFsF-vbTk2CikwW-22">
          <mxGeometry x="20.25" y="49.75" width="360" height="310" as="geometry" />
        </mxCell>
        <mxCell id="S-H7aRFsF-vbTk2CikwW-24" value="" style="rounded=0;whiteSpace=wrap;html=1;rotation=90;fillColor=none;container=0;" vertex="1" parent="S-H7aRFsF-vbTk2CikwW-22">
          <mxGeometry x="-185" y="185" width="770" height="400" as="geometry" />
        </mxCell>
        <mxCell id="S-H7aRFsF-vbTk2CikwW-25" value="" style="rounded=0;whiteSpace=wrap;html=1;rotation=90;container=0;" vertex="1" parent="S-H7aRFsF-vbTk2CikwW-22">
          <mxGeometry x="70.25" y="139.75" width="120" height="60" as="geometry" />
        </mxCell>
        <mxCell id="S-H7aRFsF-vbTk2CikwW-26" value="" style="rounded=0;whiteSpace=wrap;html=1;rotation=90;container=0;" vertex="1" parent="S-H7aRFsF-vbTk2CikwW-22">
          <mxGeometry x="210.25" y="139.75" width="120" height="60" as="geometry" />
        </mxCell>
        <mxCell id="S-H7aRFsF-vbTk2CikwW-27" value="容器1" style="text;html=1;strokeColor=none;fillColor=none;align=center;verticalAlign=middle;whiteSpace=wrap;rounded=0;fontSize=20;container=0;" vertex="1" parent="S-H7aRFsF-vbTk2CikwW-22">
          <mxGeometry x="100.25" y="109.75" width="60" height="30" as="geometry" />
        </mxCell>
        <mxCell id="S-H7aRFsF-vbTk2CikwW-28" value="容器2" style="text;html=1;strokeColor=none;fillColor=none;align=center;verticalAlign=middle;whiteSpace=wrap;rounded=0;fontSize=20;container=0;" vertex="1" parent="S-H7aRFsF-vbTk2CikwW-22">
          <mxGeometry x="240.25" y="109.75" width="60" height="30" as="geometry" />
        </mxCell>
        <mxCell id="S-H7aRFsF-vbTk2CikwW-29" value="&lt;font style=&quot;font-size: 24px;&quot;&gt;Pod1&lt;/font&gt;" style="text;html=1;strokeColor=none;fillColor=none;align=center;verticalAlign=middle;whiteSpace=wrap;rounded=0;container=0;" vertex="1" parent="S-H7aRFsF-vbTk2CikwW-22">
          <mxGeometry x="120.25" y="69.75" width="160" height="30" as="geometry" />
        </mxCell>
        <mxCell id="S-H7aRFsF-vbTk2CikwW-30" value="" style="rounded=0;whiteSpace=wrap;html=1;container=0;" vertex="1" parent="S-H7aRFsF-vbTk2CikwW-22">
          <mxGeometry x="40.25" y="229.75" width="320" height="110" as="geometry" />
        </mxCell>
        <mxCell id="S-H7aRFsF-vbTk2CikwW-31" value="共享网络空间" style="text;html=1;strokeColor=none;fillColor=none;align=left;verticalAlign=middle;whiteSpace=wrap;rounded=0;fontSize=20;container=0;" vertex="1" parent="S-H7aRFsF-vbTk2CikwW-22">
          <mxGeometry x="50.25" y="229.75" width="130" height="40" as="geometry" />
        </mxCell>
        <mxCell id="S-H7aRFsF-vbTk2CikwW-32" value="Docker0网桥" style="rounded=0;whiteSpace=wrap;html=1;align=left;fontSize=20;container=0;" vertex="1" parent="S-H7aRFsF-vbTk2CikwW-22">
          <mxGeometry x="20.25" y="547.75" width="360" height="40" as="geometry" />
        </mxCell>
        <mxCell id="S-H7aRFsF-vbTk2CikwW-33" value="ethXXX" style="rounded=0;whiteSpace=wrap;html=1;fontSize=20;rotation=-90;container=0;" vertex="1" parent="S-H7aRFsF-vbTk2CikwW-22">
          <mxGeometry x="150.25" y="479.75" width="100" height="36" as="geometry" />
        </mxCell>
        <mxCell id="S-H7aRFsF-vbTk2CikwW-34" value="" style="endArrow=classic;startArrow=classic;html=1;rounded=0;entryX=0.5;entryY=1;entryDx=0;entryDy=0;exitX=1;exitY=0.5;exitDx=0;exitDy=0;" edge="1" parent="S-H7aRFsF-vbTk2CikwW-22" source="S-H7aRFsF-vbTk2CikwW-33" target="S-H7aRFsF-vbTk2CikwW-30">
          <mxGeometry width="50" height="50" relative="1" as="geometry">
            <mxPoint x="-19.75" y="469.75" as="sourcePoint" />
            <mxPoint x="30.25" y="419.75" as="targetPoint" />
          </mxGeometry>
        </mxCell>
        <mxCell id="S-H7aRFsF-vbTk2CikwW-35" value="路由" style="ellipse;shape=cloud;whiteSpace=wrap;html=1;fontSize=20;container=0;" vertex="1" parent="S-H7aRFsF-vbTk2CikwW-22">
          <mxGeometry x="140.25" y="609.75" width="120" height="80" as="geometry" />
        </mxCell>
        <mxCell id="S-H7aRFsF-vbTk2CikwW-36" value="Node1" style="text;html=1;strokeColor=none;fillColor=none;align=center;verticalAlign=middle;whiteSpace=wrap;rounded=0;fontSize=24;container=0;" vertex="1" parent="S-H7aRFsF-vbTk2CikwW-22">
          <mxGeometry x="20.25" y="9.75" width="90" height="30" as="geometry" />
        </mxCell>
        <mxCell id="S-H7aRFsF-vbTk2CikwW-37" value="&lt;font style=&quot;font-size: 20px;&quot;&gt;eth0&lt;/font&gt;" style="rounded=0;whiteSpace=wrap;html=1;rotation=-90;" vertex="1" parent="S-H7aRFsF-vbTk2CikwW-22">
          <mxGeometry x="172.13" y="721.63" width="56.25" height="40" as="geometry" />
        </mxCell>
        <mxCell id="S-H7aRFsF-vbTk2CikwW-38" value="&lt;font style=&quot;font-size: 20px;&quot;&gt;eth0&lt;/font&gt;" style="rounded=0;whiteSpace=wrap;html=1;rotation=-90;" vertex="1" parent="S-H7aRFsF-vbTk2CikwW-22">
          <mxGeometry x="171.05999999999995" y="290.56" width="57.87" height="40" as="geometry" />
        </mxCell>
        <mxCell id="S-H7aRFsF-vbTk2CikwW-39" value="&lt;font color=&quot;#ffffff&quot; style=&quot;font-size: 20px;&quot;&gt;IP3&lt;br&gt;&lt;/font&gt;" style="ellipse;whiteSpace=wrap;html=1;fillColor=#000000;" vertex="1" parent="S-H7aRFsF-vbTk2CikwW-22">
          <mxGeometry x="210.25" y="728.63" width="80" height="26" as="geometry" />
        </mxCell>
        <mxCell id="S-H7aRFsF-vbTk2CikwW-40" value="&lt;font color=&quot;#ffffff&quot; style=&quot;font-size: 20px;&quot;&gt;IP1&lt;/font&gt;" style="ellipse;whiteSpace=wrap;html=1;fillColor=#000000;" vertex="1" parent="S-H7aRFsF-vbTk2CikwW-22">
          <mxGeometry x="210.25" y="297.56" width="80" height="26" as="geometry" />
        </mxCell>
        <mxCell id="S-H7aRFsF-vbTk2CikwW-42" value="" style="curved=1;endArrow=classic;html=1;rounded=0;entryX=1;entryY=0.5;entryDx=0;entryDy=0;exitX=1;exitY=0.5;exitDx=0;exitDy=0;startArrow=none;startFill=0;dashed=1;dashPattern=8 8;strokeWidth=2;" edge="1" parent="S-H7aRFsF-vbTk2CikwW-43" source="S-H7aRFsF-vbTk2CikwW-24" target="S-H7aRFsF-vbTk2CikwW-4">
          <mxGeometry width="50" height="50" relative="1" as="geometry">
            <mxPoint x="400" y="871" as="sourcePoint" />
            <mxPoint x="450" y="821" as="targetPoint" />
            <Array as="points">
              <mxPoint x="370" y="841" />
              <mxPoint x="490" y="831" />
            </Array>
          </mxGeometry>
        </mxCell>
      </root>
    </mxGraphModel>
  </diagram>
</mxfile>
